<?xml version="1.0" encoding="UTF-8" standalone="no"?>
<!DOCTYPE svg PUBLIC "-//W3C//DTD SVG 1.1//EN"
 "http://www.w3.org/Graphics/SVG/1.1/DTD/svg11.dtd">
<!-- Generated by graphviz version 2.38.0 (20140413.2041)
 -->
<!-- Title: %3 Pages: 1 -->
<svg width="1737pt" height="538pt"
 viewBox="0.00 0.00 1737.00 538.00" xmlns="http://www.w3.org/2000/svg" xmlns:xlink="http://www.w3.org/1999/xlink">
<g id="graph0" class="graph" transform="scale(1 1) rotate(0) translate(4 534)">
<title>%3</title>
<polygon fill="white" stroke="none" points="-4,4 -4,-534 1733,-534 1733,4 -4,4"/>
<!-- 72.21.91.29 -->
<g id="node1" class="node"><title>72.21.91.29</title>
<polygon fill="none" stroke="black" points="826.5,-516.5 744.5,-516.5 744.5,-434.5 826.5,-434.5 826.5,-516.5"/>
<text text-anchor="middle" x="785.5" y="-471.8" font-family="Times New Roman,serif" font-size="14.00">72.21.91.29</text>
</g>
<!-- 192.168.1.103 -->
<g id="node2" class="node"><title>192.168.1.103</title>
<polygon fill="none" stroke="black" points="1005,-385 910,-385 910,-290 1005,-290 1005,-385"/>
<text text-anchor="middle" x="957.5" y="-333.8" font-family="Times New Roman,serif" font-size="14.00">192.168.1.103</text>
</g>
<!-- 72.21.91.29&#45;&gt;192.168.1.103 -->
<g id="edge1" class="edge"><title>72.21.91.29&#45;&gt;192.168.1.103</title>
<path fill="none" stroke="black" d="M821.134,-434.345C825.814,-429.685 830.667,-425.128 835.5,-421 855.834,-403.631 879.917,-386.684 901.291,-372.713"/>
<polygon fill="black" stroke="black" points="903.456,-375.482 909.955,-367.115 899.656,-369.603 903.456,-375.482"/>
</g>
<!-- 162.125.18.133 -->
<g id="node3" class="node"><title>162.125.18.133</title>
<polygon fill="none" stroke="black" points="1479.5,-250.5 1377.5,-250.5 1377.5,-148.5 1479.5,-148.5 1479.5,-250.5"/>
<text text-anchor="middle" x="1428.5" y="-195.8" font-family="Times New Roman,serif" font-size="14.00">162.125.18.133</text>
</g>
<!-- 192.168.1.103&#45;&gt;162.125.18.133 -->
<g id="edge7" class="edge"><title>192.168.1.103&#45;&gt;162.125.18.133</title>
<path fill="none" stroke="black" d="M1005.2,-334.639C1083.26,-329.909 1241,-313.176 1359.5,-254 1362.65,-252.425 1365.77,-250.639 1368.83,-248.7"/>
<polygon fill="black" stroke="black" points="1371.05,-251.423 1377.32,-242.877 1367.09,-245.652 1371.05,-251.423"/>
</g>
<!-- 239.255.255.250 -->
<g id="node5" class="node"><title>239.255.255.250</title>
<polygon fill="none" stroke="black" points="377,-109 268,-109 268,-0 377,-0 377,-109"/>
<text text-anchor="middle" x="322.5" y="-50.8" font-family="Times New Roman,serif" font-size="14.00">239.255.255.250</text>
</g>
<!-- 192.168.1.103&#45;&gt;239.255.255.250 -->
<g id="edge25" class="edge"><title>192.168.1.103&#45;&gt;239.255.255.250</title>
<path fill="none" stroke="black" d="M1005.35,-336.626C1123.95,-335.816 1426.36,-326.534 1488.5,-254 1520.02,-217.209 1521.42,-180.542 1488.5,-145 1413.35,-63.8629 621.474,-56.0063 387.344,-55.4654"/>
<polygon fill="black" stroke="black" points="387.283,-51.9654 377.276,-55.4459 387.27,-58.9654 387.283,-51.9654"/>
</g>
<!-- 192.168.1.1 -->
<g id="node6" class="node"><title>192.168.1.1</title>
<polygon fill="none" stroke="black" points="363.5,-240.5 281.5,-240.5 281.5,-158.5 363.5,-158.5 363.5,-240.5"/>
<text text-anchor="middle" x="322.5" y="-195.8" font-family="Times New Roman,serif" font-size="14.00">192.168.1.1</text>
</g>
<!-- 192.168.1.103&#45;&gt;192.168.1.1 -->
<g id="edge13" class="edge"><title>192.168.1.103&#45;&gt;192.168.1.1</title>
<path fill="none" stroke="black" d="M909.768,-334.104C785.965,-326.979 458.247,-303.284 363.5,-254 359.757,-252.053 356.144,-249.712 352.71,-247.111"/>
<polygon fill="black" stroke="black" points="354.943,-244.415 345.045,-240.636 350.425,-249.763 354.943,-244.415"/>
</g>
<!-- 192.168.1.14 -->
<g id="node7" class="node"><title>192.168.1.14</title>
<polygon fill="none" stroke="black" points="1625,-244 1536,-244 1536,-155 1625,-155 1625,-244"/>
<text text-anchor="middle" x="1580.5" y="-195.8" font-family="Times New Roman,serif" font-size="14.00">192.168.1.14</text>
</g>
<!-- 192.168.1.103&#45;&gt;192.168.1.14 -->
<g id="edge5" class="edge"><title>192.168.1.103&#45;&gt;192.168.1.14</title>
<path fill="none" stroke="black" d="M1005.12,-332.764C1122.47,-323.426 1422,-296.706 1512.5,-254 1517.71,-251.543 1522.78,-248.47 1527.67,-245.046"/>
<polygon fill="black" stroke="black" points="1529.82,-247.809 1535.7,-238.999 1525.61,-242.216 1529.82,-247.809"/>
</g>
<!-- 10.8.250.78 -->
<g id="node8" class="node"><title>10.8.250.78</title>
<polygon fill="none" stroke="black" points="463.5,-240.5 381.5,-240.5 381.5,-158.5 463.5,-158.5 463.5,-240.5"/>
<text text-anchor="middle" x="422.5" y="-195.8" font-family="Times New Roman,serif" font-size="14.00">10.8.250.78</text>
</g>
<!-- 192.168.1.103&#45;&gt;10.8.250.78 -->
<g id="edge8" class="edge"><title>192.168.1.103&#45;&gt;10.8.250.78</title>
<path fill="none" stroke="black" d="M909.628,-332.271C802.693,-322.205 547.894,-294.587 472.5,-254 468.949,-252.089 465.511,-249.829 462.212,-247.338"/>
<polygon fill="black" stroke="black" points="464.229,-244.462 454.312,-240.733 459.739,-249.833 464.229,-244.462"/>
</g>
<!-- 192.168.1.255 -->
<g id="node10" class="node"><title>192.168.1.255</title>
<polygon fill="none" stroke="black" points="263,-247 168,-247 168,-152 263,-152 263,-247"/>
<text text-anchor="middle" x="215.5" y="-195.8" font-family="Times New Roman,serif" font-size="14.00">192.168.1.255</text>
</g>
<!-- 192.168.1.103&#45;&gt;192.168.1.255 -->
<g id="edge29" class="edge"><title>192.168.1.103&#45;&gt;192.168.1.255</title>
<path fill="none" stroke="black" d="M909.65,-334.598C773.478,-328.585 386.328,-307.143 272.5,-254 271.324,-253.451 270.156,-252.868 268.998,-252.255"/>
<polygon fill="black" stroke="black" points="270.688,-249.187 260.318,-247.016 267.07,-255.18 270.688,-249.187"/>
</g>
<!-- 52.173.26.181 -->
<g id="node11" class="node"><title>52.173.26.181</title>
<polygon fill="none" stroke="black" points="577,-247 482,-247 482,-152 577,-152 577,-247"/>
<text text-anchor="middle" x="529.5" y="-195.8" font-family="Times New Roman,serif" font-size="14.00">52.173.26.181</text>
</g>
<!-- 192.168.1.103&#45;&gt;52.173.26.181 -->
<g id="edge11" class="edge"><title>192.168.1.103&#45;&gt;52.173.26.181</title>
<path fill="none" stroke="black" d="M909.756,-334.339C834.659,-329.152 686.731,-311.741 577.5,-254 576.66,-253.556 575.823,-253.096 574.991,-252.622"/>
<polygon fill="black" stroke="black" points="576.561,-249.472 566.249,-247.039 572.793,-255.372 576.561,-249.472"/>
</g>
<!-- 52.109.20.3 -->
<g id="node12" class="node"><title>52.109.20.3</title>
<polygon fill="none" stroke="black" points="677.5,-240.5 595.5,-240.5 595.5,-158.5 677.5,-158.5 677.5,-240.5"/>
<text text-anchor="middle" x="636.5" y="-195.8" font-family="Times New Roman,serif" font-size="14.00">52.109.20.3</text>
</g>
<!-- 192.168.1.103&#45;&gt;52.109.20.3 -->
<g id="edge15" class="edge"><title>192.168.1.103&#45;&gt;52.109.20.3</title>
<path fill="none" stroke="black" d="M909.841,-330.74C851.215,-321.547 750.853,-299.719 677.5,-254 674.29,-251.999 671.151,-249.741 668.124,-247.313"/>
<polygon fill="black" stroke="black" points="670.228,-244.503 660.4,-240.545 665.615,-249.767 670.228,-244.503"/>
</g>
<!-- 52.109.8.21 -->
<g id="node13" class="node"><title>52.109.8.21</title>
<polygon fill="none" stroke="black" points="777.5,-240.5 695.5,-240.5 695.5,-158.5 777.5,-158.5 777.5,-240.5"/>
<text text-anchor="middle" x="736.5" y="-195.8" font-family="Times New Roman,serif" font-size="14.00">52.109.8.21</text>
</g>
<!-- 192.168.1.103&#45;&gt;52.109.8.21 -->
<g id="edge17" class="edge"><title>192.168.1.103&#45;&gt;52.109.8.21</title>
<path fill="none" stroke="black" d="M909.752,-321.835C871.614,-307.674 818.253,-283.987 777.5,-254 774.786,-252.003 772.099,-249.847 769.471,-247.585"/>
<polygon fill="black" stroke="black" points="771.532,-244.725 761.8,-240.537 766.796,-249.88 771.532,-244.725"/>
</g>
<!-- 13.107.3.128 -->
<g id="node14" class="node"><title>13.107.3.128</title>
<polygon fill="none" stroke="black" points="885,-244 796,-244 796,-155 885,-155 885,-244"/>
<text text-anchor="middle" x="840.5" y="-195.8" font-family="Times New Roman,serif" font-size="14.00">13.107.3.128</text>
</g>
<!-- 192.168.1.103&#45;&gt;13.107.3.128 -->
<g id="edge19" class="edge"><title>192.168.1.103&#45;&gt;13.107.3.128</title>
<path fill="none" stroke="black" d="M910.786,-289.697C900.021,-277.595 888.713,-264.498 878.372,-252.163"/>
<polygon fill="black" stroke="black" points="880.82,-249.633 871.732,-244.186 875.439,-254.111 880.82,-249.633"/>
</g>
<!-- 173.194.205.189 -->
<g id="node15" class="node"><title>173.194.205.189</title>
<polygon fill="none" stroke="black" points="1012,-254 903,-254 903,-145 1012,-145 1012,-254"/>
<text text-anchor="middle" x="957.5" y="-195.8" font-family="Times New Roman,serif" font-size="14.00">173.194.205.189</text>
</g>
<!-- 192.168.1.103&#45;&gt;173.194.205.189 -->
<g id="edge22" class="edge"><title>192.168.1.103&#45;&gt;173.194.205.189</title>
<path fill="none" stroke="black" d="M951.05,-289.697C950.814,-281.612 950.717,-273.083 950.76,-264.634"/>
<polygon fill="black" stroke="black" points="954.262,-264.444 950.881,-254.403 947.263,-264.361 954.262,-264.444"/>
</g>
<!-- 34.235.3.239 -->
<g id="node16" class="node"><title>34.235.3.239</title>
<polygon fill="none" stroke="black" points="1119,-244 1030,-244 1030,-155 1119,-155 1119,-244"/>
<text text-anchor="middle" x="1074.5" y="-195.8" font-family="Times New Roman,serif" font-size="14.00">34.235.3.239</text>
</g>
<!-- 192.168.1.103&#45;&gt;34.235.3.239 -->
<g id="edge23" class="edge"><title>192.168.1.103&#45;&gt;34.235.3.239</title>
<path fill="none" stroke="black" d="M991.315,-289.697C1001.47,-277.48 1012.81,-264.249 1023.79,-251.811"/>
<polygon fill="black" stroke="black" points="1026.54,-253.986 1030.57,-244.186 1021.31,-249.337 1026.54,-253.986"/>
</g>
<!-- 173.194.175.189 -->
<g id="node17" class="node"><title>173.194.175.189</title>
<polygon fill="none" stroke="black" points="1246,-254 1137,-254 1137,-145 1246,-145 1246,-254"/>
<text text-anchor="middle" x="1191.5" y="-195.8" font-family="Times New Roman,serif" font-size="14.00">173.194.175.189</text>
</g>
<!-- 192.168.1.103&#45;&gt;173.194.175.189 -->
<g id="edge27" class="edge"><title>192.168.1.103&#45;&gt;173.194.175.189</title>
<path fill="none" stroke="black" d="M1005.18,-314.053C1038.37,-299.08 1082.89,-277.817 1119.5,-254 1122.57,-252.005 1125.65,-249.876 1128.72,-247.66"/>
<polygon fill="black" stroke="black" points="1130.89,-250.41 1136.81,-241.624 1126.7,-244.8 1130.89,-250.41"/>
</g>
<!-- 224.0.0.251 -->
<g id="node21" class="node"><title>224.0.0.251</title>
<polygon fill="none" stroke="black" points="1725.5,-240.5 1643.5,-240.5 1643.5,-158.5 1725.5,-158.5 1725.5,-240.5"/>
<text text-anchor="middle" x="1684.5" y="-195.8" font-family="Times New Roman,serif" font-size="14.00">224.0.0.251</text>
</g>
<!-- 192.168.1.103&#45;&gt;224.0.0.251 -->
<g id="edge32" class="edge"><title>192.168.1.103&#45;&gt;224.0.0.251</title>
<path fill="none" stroke="black" d="M1005.45,-334.885C1140.94,-329.666 1523.93,-310.196 1634.5,-254 1638.26,-252.088 1641.89,-249.773 1645.35,-247.191"/>
<polygon fill="black" stroke="black" points="1647.66,-249.824 1653.12,-240.747 1643.19,-244.436 1647.66,-249.824"/>
</g>
<!-- 172.217.6.197 -->
<g id="node22" class="node"><title>172.217.6.197</title>
<polygon fill="none" stroke="black" points="1359,-247 1264,-247 1264,-152 1359,-152 1359,-247"/>
<text text-anchor="middle" x="1311.5" y="-195.8" font-family="Times New Roman,serif" font-size="14.00">172.217.6.197</text>
</g>
<!-- 192.168.1.103&#45;&gt;172.217.6.197 -->
<g id="edge33" class="edge"><title>192.168.1.103&#45;&gt;172.217.6.197</title>
<path fill="none" stroke="black" d="M1005.2,-329.654C1064.86,-320.011 1168.3,-298.391 1246.5,-254 1249.67,-252.201 1252.79,-250.184 1255.86,-248.015"/>
<polygon fill="black" stroke="black" points="1257.98,-250.799 1263.83,-241.963 1253.75,-245.225 1257.98,-250.799"/>
</g>
<!-- 162.125.18.133&#45;&gt;192.168.1.103 -->
<g id="edge2" class="edge"><title>162.125.18.133&#45;&gt;192.168.1.103</title>
<path fill="none" stroke="black" d="M1383.81,-250.552C1381.73,-251.785 1379.62,-252.94 1377.5,-254 1258.27,-313.538 1099.33,-330.112 1015.19,-334.724"/>
<polygon fill="black" stroke="black" points="1014.87,-331.236 1005.06,-335.241 1015.23,-338.227 1014.87,-331.236"/>
</g>
<!-- 192.168.1.121 -->
<g id="node4" class="node"><title>192.168.1.121</title>
<polygon fill="none" stroke="black" points="190,-385 95,-385 95,-290 190,-290 190,-385"/>
<text text-anchor="middle" x="142.5" y="-333.8" font-family="Times New Roman,serif" font-size="14.00">192.168.1.121</text>
</g>
<!-- 192.168.1.121&#45;&gt;239.255.255.250 -->
<g id="edge3" class="edge"><title>192.168.1.121&#45;&gt;239.255.255.250</title>
<path fill="none" stroke="black" d="M134.699,-289.622C130.366,-248.213 130.551,-187.912 158.5,-145 181.234,-110.094 222.432,-87.6864 257.847,-74.0214"/>
<polygon fill="black" stroke="black" points="259.494,-77.1441 267.662,-70.3959 257.069,-70.5777 259.494,-77.1441"/>
</g>
<!-- 255.255.255.255 -->
<g id="node9" class="node"><title>255.255.255.255</title>
<polygon fill="none" stroke="black" points="109,-254 0,-254 0,-145 109,-145 109,-254"/>
<text text-anchor="middle" x="54.5" y="-195.8" font-family="Times New Roman,serif" font-size="14.00">255.255.255.255</text>
</g>
<!-- 192.168.1.121&#45;&gt;255.255.255.255 -->
<g id="edge9" class="edge"><title>192.168.1.121&#45;&gt;255.255.255.255</title>
<path fill="none" stroke="black" d="M112.215,-289.697C106.639,-281.079 100.737,-271.957 94.9181,-262.964"/>
<polygon fill="black" stroke="black" points="97.7497,-260.898 89.3787,-254.403 91.8727,-264.701 97.7497,-260.898"/>
</g>
<!-- 192.168.1.121&#45;&gt;192.168.1.255 -->
<g id="edge10" class="edge"><title>192.168.1.121&#45;&gt;192.168.1.255</title>
<path fill="none" stroke="black" d="M167.622,-289.697C173.358,-279.012 179.51,-267.551 185.428,-256.524"/>
<polygon fill="black" stroke="black" points="188.686,-257.856 190.331,-247.39 182.518,-254.545 188.686,-257.856"/>
</g>
<!-- 192.168.1.1&#45;&gt;192.168.1.103 -->
<g id="edge14" class="edge"><title>192.168.1.1&#45;&gt;192.168.1.103</title>
<path fill="none" stroke="black" d="M362.825,-240.636C368.603,-245.831 374.846,-250.539 381.5,-254 471.554,-300.843 772.074,-324.569 899.605,-332.922"/>
<polygon fill="black" stroke="black" points="899.737,-336.438 909.942,-333.59 900.189,-329.453 899.737,-336.438"/>
</g>
<!-- 192.168.1.1&#45;&gt;239.255.255.250 -->
<g id="edge4" class="edge"><title>192.168.1.1&#45;&gt;239.255.255.250</title>
<path fill="none" stroke="black" d="M322.5,-158.286C322.5,-146.108 322.5,-132.421 322.5,-119.104"/>
<polygon fill="black" stroke="black" points="326,-119.024 322.5,-109.024 319,-119.024 326,-119.024"/>
</g>
<!-- 192.168.1.14&#45;&gt;192.168.1.103 -->
<g id="edge6" class="edge"><title>192.168.1.14&#45;&gt;192.168.1.103</title>
<path fill="none" stroke="black" d="M1546.75,-244.21C1541.6,-247.97 1536.13,-251.345 1530.5,-254 1440.3,-296.565 1142.44,-323.25 1015.5,-332.671"/>
<polygon fill="black" stroke="black" points="1014.92,-329.204 1005.2,-333.425 1015.43,-336.185 1014.92,-329.204"/>
</g>
<!-- 52.173.26.181&#45;&gt;192.168.1.103 -->
<g id="edge12" class="edge"><title>52.173.26.181&#45;&gt;192.168.1.103</title>
<path fill="none" stroke="black" d="M577.106,-241.729C582.971,-246.376 589.141,-250.638 595.5,-254 694.531,-306.349 825.37,-325.548 899.655,-332.543"/>
<polygon fill="black" stroke="black" points="899.479,-336.041 909.753,-333.451 900.106,-329.069 899.479,-336.041"/>
</g>
<!-- 52.109.20.3&#45;&gt;192.168.1.103 -->
<g id="edge16" class="edge"><title>52.109.20.3&#45;&gt;192.168.1.103</title>
<path fill="none" stroke="black" d="M677.629,-240.006C683.254,-245.221 689.242,-250.1 695.5,-254 759.546,-293.918 844.18,-315.623 899.772,-326.607"/>
<polygon fill="black" stroke="black" points="899.322,-330.085 909.803,-328.535 900.643,-323.21 899.322,-330.085"/>
</g>
<!-- 52.109.8.21&#45;&gt;192.168.1.103 -->
<g id="edge18" class="edge"><title>52.109.8.21&#45;&gt;192.168.1.103</title>
<path fill="none" stroke="black" d="M777.628,-238.611C783.346,-244.139 789.356,-249.479 795.5,-254 827.88,-277.825 868.219,-297.674 900.611,-311.928"/>
<polygon fill="black" stroke="black" points="899.389,-315.213 909.956,-315.984 902.176,-308.792 899.389,-315.213"/>
</g>
<!-- 13.107.3.128&#45;&gt;192.168.1.103 -->
<g id="edge20" class="edge"><title>13.107.3.128&#45;&gt;192.168.1.103</title>
<path fill="none" stroke="black" d="M884.434,-244.186C895.194,-256.216 906.643,-269.415 917.223,-281.975"/>
<polygon fill="black" stroke="black" points="914.583,-284.274 923.685,-289.697 919.951,-279.781 914.583,-284.274"/>
</g>
<!-- 173.194.205.189&#45;&gt;192.168.1.103 -->
<g id="edge21" class="edge"><title>173.194.205.189&#45;&gt;192.168.1.103</title>
<path fill="none" stroke="black" d="M964.119,-254.403C964.275,-262.701 964.292,-271.291 964.169,-279.65"/>
<polygon fill="black" stroke="black" points="960.669,-279.623 963.95,-289.697 967.667,-279.775 960.669,-279.623"/>
</g>
<!-- 34.235.3.239&#45;&gt;192.168.1.103 -->
<g id="edge24" class="edge"><title>34.235.3.239&#45;&gt;192.168.1.103</title>
<path fill="none" stroke="black" d="M1043.27,-244.186C1033.33,-256.216 1022.07,-269.415 1011.04,-281.975"/>
<polygon fill="black" stroke="black" points="1008.21,-279.886 1004.21,-289.697 1013.46,-284.521 1008.21,-279.886"/>
</g>
<!-- 173.194.175.189&#45;&gt;192.168.1.103 -->
<g id="edge26" class="edge"><title>173.194.175.189&#45;&gt;192.168.1.103</title>
<path fill="none" stroke="black" d="M1137.01,-254.321C1098.4,-279.362 1051.12,-301.556 1014.68,-316.547"/>
<polygon fill="black" stroke="black" points="1013.14,-313.394 1005.19,-320.39 1015.77,-319.883 1013.14,-313.394"/>
</g>
<!-- 209.85.201.189 -->
<g id="node18" class="node"><title>209.85.201.189</title>
<polygon fill="none" stroke="black" points="946.5,-526.5 844.5,-526.5 844.5,-424.5 946.5,-424.5 946.5,-526.5"/>
<text text-anchor="middle" x="895.5" y="-471.8" font-family="Times New Roman,serif" font-size="14.00">209.85.201.189</text>
</g>
<!-- 209.85.201.189&#45;&gt;192.168.1.103 -->
<g id="edge28" class="edge"><title>209.85.201.189&#45;&gt;192.168.1.103</title>
<path fill="none" stroke="black" d="M918.41,-424.245C922.802,-414.612 927.427,-404.468 931.897,-394.662"/>
<polygon fill="black" stroke="black" points="935.159,-395.944 936.122,-385.393 928.79,-393.04 935.159,-395.944"/>
</g>
<!-- 172.217.197.189 -->
<g id="node19" class="node"><title>172.217.197.189</title>
<polygon fill="none" stroke="black" points="1074,-530 965,-530 965,-421 1074,-421 1074,-530"/>
<text text-anchor="middle" x="1019.5" y="-471.8" font-family="Times New Roman,serif" font-size="14.00">172.217.197.189</text>
</g>
<!-- 172.217.197.189&#45;&gt;192.168.1.103 -->
<g id="edge30" class="edge"><title>172.217.197.189&#45;&gt;192.168.1.103</title>
<path fill="none" stroke="black" d="M994.996,-420.749C991.069,-412.134 986.996,-403.2 983.045,-394.533"/>
<polygon fill="black" stroke="black" points="986.151,-392.909 978.818,-385.262 979.781,-395.813 986.151,-392.909"/>
</g>
<!-- 192.168.1.51 -->
<g id="node20" class="node"><title>192.168.1.51</title>
<polygon fill="none" stroke="black" points="1729,-382 1640,-382 1640,-293 1729,-293 1729,-382"/>
<text text-anchor="middle" x="1684.5" y="-333.8" font-family="Times New Roman,serif" font-size="14.00">192.168.1.51</text>
</g>
<!-- 192.168.1.51&#45;&gt;224.0.0.251 -->
<g id="edge31" class="edge"><title>192.168.1.51&#45;&gt;224.0.0.251</title>
<path fill="none" stroke="black" d="M1684.5,-292.72C1684.5,-279.355 1684.5,-264.553 1684.5,-250.791"/>
<polygon fill="black" stroke="black" points="1688,-250.512 1684.5,-240.512 1681,-250.512 1688,-250.512"/>
</g>
<!-- 172.217.6.197&#45;&gt;192.168.1.103 -->
<g id="edge34" class="edge"><title>172.217.6.197&#45;&gt;192.168.1.103</title>
<path fill="none" stroke="black" d="M1275.15,-247.068C1271.69,-249.598 1268.12,-251.942 1264.5,-254 1185.07,-299.093 1079.58,-320.689 1015.12,-330.102"/>
<polygon fill="black" stroke="black" points="1014.55,-326.648 1005.14,-331.51 1015.53,-333.579 1014.55,-326.648"/>
</g>
<!-- 107.20.240.232 -->
<g id="node23" class="node"><title>107.20.240.232</title>
<polygon fill="none" stroke="black" points="1194.5,-526.5 1092.5,-526.5 1092.5,-424.5 1194.5,-424.5 1194.5,-526.5"/>
<text text-anchor="middle" x="1143.5" y="-471.8" font-family="Times New Roman,serif" font-size="14.00">107.20.240.232</text>
</g>
<!-- 107.20.240.232&#45;&gt;192.168.1.103 -->
<g id="edge35" class="edge"><title>107.20.240.232&#45;&gt;192.168.1.103</title>
<path fill="none" stroke="black" d="M1092.21,-427.889C1089.29,-425.518 1086.38,-423.207 1083.5,-421 1061.42,-404.079 1035.94,-386.976 1013.69,-372.762"/>
<polygon fill="black" stroke="black" points="1015.33,-369.662 1005.01,-367.262 1011.58,-375.573 1015.33,-369.662"/>
</g>
<!-- 0.0.0.0 -->
<g id="node24" class="node"><title>0.0.0.0</title>
<polygon fill="none" stroke="black" points="77,-365 22,-365 22,-310 77,-310 77,-365"/>
<text text-anchor="middle" x="49.5" y="-333.8" font-family="Times New Roman,serif" font-size="14.00">0.0.0.0</text>
</g>
<!-- 0.0.0.0&#45;&gt;255.255.255.255 -->
<g id="edge36" class="edge"><title>0.0.0.0&#45;&gt;255.255.255.255</title>
<path fill="none" stroke="black" d="M50.4759,-309.955C50.9538,-296.956 51.5519,-280.688 52.1397,-264.701"/>
<polygon fill="black" stroke="black" points="55.6532,-264.395 52.5231,-254.273 48.6579,-264.138 55.6532,-264.395"/>
</g>
</g>
</svg>
