<?xml version="1.0" encoding="UTF-8" standalone="no"?>
<!DOCTYPE svg PUBLIC "-//W3C//DTD SVG 1.1//EN"
 "http://www.w3.org/Graphics/SVG/1.1/DTD/svg11.dtd">
<!-- Generated by graphviz version 2.38.0 (20140413.2041)
 -->
<!-- Title: %3 Pages: 1 -->
<svg width="2154pt" height="386pt"
 viewBox="0.00 0.00 2153.50 386.00" xmlns="http://www.w3.org/2000/svg" xmlns:xlink="http://www.w3.org/1999/xlink">
<g id="graph0" class="graph" transform="scale(1 1) rotate(0) translate(4 382)">
<title>%3</title>
<polygon fill="white" stroke="none" points="-4,4 -4,-382 2149.5,-382 2149.5,4 -4,4"/>
<!-- 192.168.1.103 -->
<g id="node1" class="node"><title>192.168.1.103</title>
<polygon fill="none" stroke="black" points="1133,-240 1038,-240 1038,-145 1133,-145 1133,-240"/>
<text text-anchor="middle" x="1085.5" y="-188.8" font-family="Times New Roman,serif" font-size="14.00">192.168.1.103</text>
</g>
<!-- 104.16.59.37 -->
<g id="node2" class="node"><title>104.16.59.37</title>
<polygon fill="none" stroke="black" points="329,-99 240,-99 240,-10 329,-10 329,-99"/>
<text text-anchor="middle" x="284.5" y="-50.8" font-family="Times New Roman,serif" font-size="14.00">104.16.59.37</text>
</g>
<!-- 192.168.1.103&#45;&gt;104.16.59.37 -->
<g id="edge1" class="edge"><title>192.168.1.103&#45;&gt;104.16.59.37</title>
<path fill="none" stroke="black" d="M1037.87,-190.47C891.988,-186.581 454.305,-169.766 328.5,-109 326.131,-107.856 323.806,-106.56 321.539,-105.145"/>
<polygon fill="black" stroke="black" points="323.282,-102.091 313.101,-99.158 319.231,-107.799 323.282,-102.091"/>
</g>
<!-- 192.168.1.255 -->
<g id="node5" class="node"><title>192.168.1.255</title>
<polygon fill="none" stroke="black" points="222,-102 127,-102 127,-7 222,-7 222,-102"/>
<text text-anchor="middle" x="174.5" y="-50.8" font-family="Times New Roman,serif" font-size="14.00">192.168.1.255</text>
</g>
<!-- 192.168.1.103&#45;&gt;192.168.1.255 -->
<g id="edge15" class="edge"><title>192.168.1.103&#45;&gt;192.168.1.255</title>
<path fill="none" stroke="black" d="M1037.95,-190.965C880.252,-188.568 376.259,-175.739 230.5,-109 229.331,-108.465 228.171,-107.895 227.021,-107.294"/>
<polygon fill="black" stroke="black" points="228.796,-104.277 218.422,-102.126 225.19,-110.277 228.796,-104.277"/>
</g>
<!-- 173.194.206.189 -->
<g id="node6" class="node"><title>173.194.206.189</title>
<polygon fill="none" stroke="black" points="456,-109 347,-109 347,-0 456,-0 456,-109"/>
<text text-anchor="middle" x="401.5" y="-50.8" font-family="Times New Roman,serif" font-size="14.00">173.194.206.189</text>
</g>
<!-- 192.168.1.103&#45;&gt;173.194.206.189 -->
<g id="edge6" class="edge"><title>192.168.1.103&#45;&gt;173.194.206.189</title>
<path fill="none" stroke="black" d="M1037.71,-188.901C912.975,-181.283 579.89,-156.747 465.261,-113.009"/>
<polygon fill="black" stroke="black" points="466.386,-109.687 455.806,-109.135 463.733,-116.165 466.386,-109.687"/>
</g>
<!-- 172.217.11.37 -->
<g id="node7" class="node"><title>172.217.11.37</title>
<polygon fill="none" stroke="black" points="569,-102 474,-102 474,-7 569,-7 569,-102"/>
<text text-anchor="middle" x="521.5" y="-50.8" font-family="Times New Roman,serif" font-size="14.00">172.217.11.37</text>
</g>
<!-- 192.168.1.103&#45;&gt;172.217.11.37 -->
<g id="edge7" class="edge"><title>192.168.1.103&#45;&gt;172.217.11.37</title>
<path fill="none" stroke="black" d="M1037.72,-187.717C925.944,-177.851 651.307,-149.279 569.5,-109 568.495,-108.505 567.496,-107.987 566.504,-107.447"/>
<polygon fill="black" stroke="black" points="568.123,-104.333 557.775,-102.059 564.446,-110.29 568.123,-104.333"/>
</g>
<!-- 192.168.1.1 -->
<g id="node8" class="node"><title>192.168.1.1</title>
<polygon fill="none" stroke="black" points="669.5,-95.5 587.5,-95.5 587.5,-13.5 669.5,-13.5 669.5,-95.5"/>
<text text-anchor="middle" x="628.5" y="-50.8" font-family="Times New Roman,serif" font-size="14.00">192.168.1.1</text>
</g>
<!-- 192.168.1.103&#45;&gt;192.168.1.1 -->
<g id="edge9" class="edge"><title>192.168.1.103&#45;&gt;192.168.1.1</title>
<path fill="none" stroke="black" d="M1037.78,-191.228C956.664,-189.003 789.551,-176.088 669.5,-109 665.98,-107.033 662.565,-104.732 659.299,-102.21"/>
<polygon fill="black" stroke="black" points="661.39,-99.3929 651.517,-95.5505 656.839,-104.711 661.39,-99.3929"/>
</g>
<!-- 172.217.10.46 -->
<g id="node9" class="node"><title>172.217.10.46</title>
<polygon fill="none" stroke="black" points="783,-102 688,-102 688,-7 783,-7 783,-102"/>
<text text-anchor="middle" x="735.5" y="-50.8" font-family="Times New Roman,serif" font-size="14.00">172.217.10.46</text>
</g>
<!-- 192.168.1.103&#45;&gt;172.217.10.46 -->
<g id="edge11" class="edge"><title>192.168.1.103&#45;&gt;172.217.10.46</title>
<path fill="none" stroke="black" d="M1037.9,-186.316C975.522,-177.543 864.826,-155.926 782.5,-109 781.821,-108.613 781.144,-108.216 780.469,-107.81"/>
<polygon fill="black" stroke="black" points="782.118,-104.702 771.859,-102.053 778.227,-110.521 782.118,-104.702"/>
</g>
<!-- 172.217.10.14 -->
<g id="node10" class="node"><title>172.217.10.14</title>
<polygon fill="none" stroke="black" points="896,-102 801,-102 801,-7 896,-7 896,-102"/>
<text text-anchor="middle" x="848.5" y="-50.8" font-family="Times New Roman,serif" font-size="14.00">172.217.10.14</text>
</g>
<!-- 192.168.1.103&#45;&gt;172.217.10.14 -->
<g id="edge13" class="edge"><title>192.168.1.103&#45;&gt;172.217.10.14</title>
<path fill="none" stroke="black" d="M1037.97,-177.263C998.113,-163.005 941.008,-138.914 896.5,-109 896.106,-108.735 895.712,-108.467 895.318,-108.197"/>
<polygon fill="black" stroke="black" points="897.243,-105.269 887.11,-102.176 893.103,-110.913 897.243,-105.269"/>
</g>
<!-- 172.217.12.174 -->
<g id="node11" class="node"><title>172.217.12.174</title>
<polygon fill="none" stroke="black" points="1016.5,-105.5 914.5,-105.5 914.5,-3.5 1016.5,-3.5 1016.5,-105.5"/>
<text text-anchor="middle" x="965.5" y="-50.8" font-family="Times New Roman,serif" font-size="14.00">172.217.12.174</text>
</g>
<!-- 192.168.1.103&#45;&gt;172.217.12.174 -->
<g id="edge16" class="edge"><title>192.168.1.103&#45;&gt;172.217.12.174</title>
<path fill="none" stroke="black" d="M1037.75,-144.697C1028.51,-134.557 1018.87,-123.718 1009.74,-113.215"/>
<polygon fill="black" stroke="black" points="1012.39,-110.921 1003.2,-105.64 1007.09,-115.496 1012.39,-110.921"/>
</g>
<!-- 192.30.253.113 -->
<g id="node12" class="node"><title>192.30.253.113</title>
<polygon fill="none" stroke="black" points="1136.5,-105.5 1034.5,-105.5 1034.5,-3.5 1136.5,-3.5 1136.5,-105.5"/>
<text text-anchor="middle" x="1085.5" y="-50.8" font-family="Times New Roman,serif" font-size="14.00">192.30.253.113</text>
</g>
<!-- 192.168.1.103&#45;&gt;192.30.253.113 -->
<g id="edge18" class="edge"><title>192.168.1.103&#45;&gt;192.30.253.113</title>
<path fill="none" stroke="black" d="M1079.05,-144.697C1078.78,-135.344 1078.69,-125.397 1078.79,-115.668"/>
<polygon fill="black" stroke="black" points="1082.29,-115.699 1078.96,-105.64 1075.29,-115.579 1082.29,-115.699"/>
</g>
<!-- 173.194.207.189 -->
<g id="node13" class="node"><title>173.194.207.189</title>
<polygon fill="none" stroke="black" points="1264,-109 1155,-109 1155,-0 1264,-0 1264,-109"/>
<text text-anchor="middle" x="1209.5" y="-50.8" font-family="Times New Roman,serif" font-size="14.00">173.194.207.189</text>
</g>
<!-- 192.168.1.103&#45;&gt;173.194.207.189 -->
<g id="edge21" class="edge"><title>192.168.1.103&#45;&gt;173.194.207.189</title>
<path fill="none" stroke="black" d="M1121.72,-144.697C1129.94,-135.39 1138.87,-125.494 1147.8,-115.81"/>
<polygon fill="black" stroke="black" points="1150.38,-118.172 1154.61,-108.458 1145.25,-113.414 1150.38,-118.172"/>
</g>
<!-- 172.217.10.42 -->
<g id="node14" class="node"><title>172.217.10.42</title>
<polygon fill="none" stroke="black" points="1377,-102 1282,-102 1282,-7 1377,-7 1377,-102"/>
<text text-anchor="middle" x="1329.5" y="-50.8" font-family="Times New Roman,serif" font-size="14.00">172.217.10.42</text>
</g>
<!-- 192.168.1.103&#45;&gt;172.217.10.42 -->
<g id="edge22" class="edge"><title>192.168.1.103&#45;&gt;172.217.10.42</title>
<path fill="none" stroke="black" d="M1133.22,-173.085C1170.65,-158.76 1222.98,-136.682 1264.5,-109 1267.74,-106.838 1270.97,-104.48 1274.15,-101.998"/>
<polygon fill="black" stroke="black" points="1276.44,-104.649 1281.97,-95.6128 1272.01,-99.2273 1276.44,-104.649"/>
</g>
<!-- 10.8.250.78 -->
<g id="node15" class="node"><title>10.8.250.78</title>
<polygon fill="none" stroke="black" points="1477.5,-95.5 1395.5,-95.5 1395.5,-13.5 1477.5,-13.5 1477.5,-95.5"/>
<text text-anchor="middle" x="1436.5" y="-50.8" font-family="Times New Roman,serif" font-size="14.00">10.8.250.78</text>
</g>
<!-- 192.168.1.103&#45;&gt;10.8.250.78 -->
<g id="edge24" class="edge"><title>192.168.1.103&#45;&gt;10.8.250.78</title>
<path fill="none" stroke="black" d="M1133.26,-186.568C1195.43,-178.399 1305.68,-157.814 1386.5,-109 1389.74,-107.045 1392.9,-104.821 1395.95,-102.418"/>
<polygon fill="black" stroke="black" points="1398.48,-104.867 1403.79,-95.7001 1393.92,-99.5528 1398.48,-104.867"/>
</g>
<!-- 10.18.208.1 -->
<g id="node16" class="node"><title>10.18.208.1</title>
<polygon fill="none" stroke="black" points="1577.5,-95.5 1495.5,-95.5 1495.5,-13.5 1577.5,-13.5 1577.5,-95.5"/>
<text text-anchor="middle" x="1536.5" y="-50.8" font-family="Times New Roman,serif" font-size="14.00">10.18.208.1</text>
</g>
<!-- 192.168.1.103&#45;&gt;10.18.208.1 -->
<g id="edge26" class="edge"><title>192.168.1.103&#45;&gt;10.18.208.1</title>
<path fill="none" stroke="black" d="M1133.24,-190.636C1210.44,-187.193 1364.98,-172.095 1477.5,-109 1481.12,-106.971 1484.63,-104.591 1488.01,-101.981"/>
<polygon fill="black" stroke="black" points="1490.28,-104.647 1495.68,-95.5337 1485.78,-99.2878 1490.28,-104.647"/>
</g>
<!-- 162.125.18.133 -->
<g id="node17" class="node"><title>162.125.18.133</title>
<polygon fill="none" stroke="black" points="1697.5,-105.5 1595.5,-105.5 1595.5,-3.5 1697.5,-3.5 1697.5,-105.5"/>
<text text-anchor="middle" x="1646.5" y="-50.8" font-family="Times New Roman,serif" font-size="14.00">162.125.18.133</text>
</g>
<!-- 192.168.1.103&#45;&gt;162.125.18.133 -->
<g id="edge28" class="edge"><title>192.168.1.103&#45;&gt;162.125.18.133</title>
<path fill="none" stroke="black" d="M1133.13,-192.271C1224.14,-191.646 1426.57,-181.106 1577.5,-109 1580.68,-107.48 1583.82,-105.739 1586.9,-103.835"/>
<polygon fill="black" stroke="black" points="1589.09,-106.582 1595.42,-98.0877 1585.17,-100.779 1589.09,-106.582"/>
</g>
<!-- 13.35.78.79 -->
<g id="node18" class="node"><title>13.35.78.79</title>
<polygon fill="none" stroke="black" points="1797.5,-95.5 1715.5,-95.5 1715.5,-13.5 1797.5,-13.5 1797.5,-95.5"/>
<text text-anchor="middle" x="1756.5" y="-50.8" font-family="Times New Roman,serif" font-size="14.00">13.35.78.79</text>
</g>
<!-- 192.168.1.103&#45;&gt;13.35.78.79 -->
<g id="edge29" class="edge"><title>192.168.1.103&#45;&gt;13.35.78.79</title>
<path fill="none" stroke="black" d="M1133.44,-189.06C1259.8,-182.242 1598.4,-160.047 1697.5,-109 1701.25,-107.068 1704.87,-104.738 1708.35,-102.145"/>
<polygon fill="black" stroke="black" points="1710.7,-104.74 1716.2,-95.683 1706.25,-99.3346 1710.7,-104.74"/>
</g>
<!-- 239.255.255.250 -->
<g id="node20" class="node"><title>239.255.255.250</title>
<polygon fill="none" stroke="black" points="1925,-109 1816,-109 1816,-0 1925,-0 1925,-109"/>
<text text-anchor="middle" x="1870.5" y="-50.8" font-family="Times New Roman,serif" font-size="14.00">239.255.255.250</text>
</g>
<!-- 192.168.1.103&#45;&gt;239.255.255.250 -->
<g id="edge32" class="edge"><title>192.168.1.103&#45;&gt;239.255.255.250</title>
<path fill="none" stroke="black" d="M1133.18,-189.605C1273.75,-183.462 1684.34,-161.385 1806.5,-109 1806.6,-108.957 1806.7,-108.914 1806.8,-108.871"/>
<polygon fill="black" stroke="black" points="1808.57,-111.9 1815.95,-104.303 1805.44,-105.637 1808.57,-111.9"/>
</g>
<!-- 172.217.12.138 -->
<g id="node23" class="node"><title>172.217.12.138</title>
<polygon fill="none" stroke="black" points="2045.5,-105.5 1943.5,-105.5 1943.5,-3.5 2045.5,-3.5 2045.5,-105.5"/>
<text text-anchor="middle" x="1994.5" y="-50.8" font-family="Times New Roman,serif" font-size="14.00">172.217.12.138</text>
</g>
<!-- 192.168.1.103&#45;&gt;172.217.12.138 -->
<g id="edge35" class="edge"><title>192.168.1.103&#45;&gt;172.217.12.138</title>
<path fill="none" stroke="black" d="M1133.27,-190.651C1289.22,-187.355 1781.01,-172.233 1925.5,-109 1928.66,-107.615 1931.78,-105.998 1934.83,-104.206"/>
<polygon fill="black" stroke="black" points="1936.77,-107.122 1943.25,-98.7435 1932.96,-101.249 1936.77,-107.122"/>
</g>
<!-- 172.217.7.3 -->
<g id="node25" class="node"><title>172.217.7.3</title>
<polygon fill="none" stroke="black" points="2145.5,-95.5 2063.5,-95.5 2063.5,-13.5 2145.5,-13.5 2145.5,-95.5"/>
<text text-anchor="middle" x="2104.5" y="-50.8" font-family="Times New Roman,serif" font-size="14.00">172.217.7.3</text>
</g>
<!-- 192.168.1.103&#45;&gt;172.217.7.3 -->
<g id="edge38" class="edge"><title>192.168.1.103&#45;&gt;172.217.7.3</title>
<path fill="none" stroke="black" d="M1133.17,-191.92C1303.73,-192.629 1881.38,-188.699 2045.5,-109 2049.36,-107.126 2053.07,-104.816 2056.63,-102.218"/>
<polygon fill="black" stroke="black" points="2059.09,-104.728 2064.63,-95.7015 2054.67,-99.2977 2059.09,-104.728"/>
</g>
<!-- 104.16.59.37&#45;&gt;192.168.1.103 -->
<g id="edge2" class="edge"><title>104.16.59.37&#45;&gt;192.168.1.103</title>
<path fill="none" stroke="black" d="M329.09,-97.6414C334.556,-102.08 340.378,-106.043 346.5,-109 467.323,-167.36 875.812,-185.181 1027.91,-189.945"/>
<polygon fill="black" stroke="black" points="1027.88,-193.446 1037.98,-190.253 1028.09,-186.449 1027.88,-193.446"/>
</g>
<!-- 192.168.1.121 -->
<g id="node3" class="node"><title>192.168.1.121</title>
<polygon fill="none" stroke="black" points="162,-240 67,-240 67,-145 162,-145 162,-240"/>
<text text-anchor="middle" x="114.5" y="-188.8" font-family="Times New Roman,serif" font-size="14.00">192.168.1.121</text>
</g>
<!-- 255.255.255.255 -->
<g id="node4" class="node"><title>255.255.255.255</title>
<polygon fill="none" stroke="black" points="109,-109 0,-109 0,-0 109,-0 109,-109"/>
<text text-anchor="middle" x="54.5" y="-50.8" font-family="Times New Roman,serif" font-size="14.00">255.255.255.255</text>
</g>
<!-- 192.168.1.121&#45;&gt;255.255.255.255 -->
<g id="edge3" class="edge"><title>192.168.1.121&#45;&gt;255.255.255.255</title>
<path fill="none" stroke="black" d="M93.8514,-144.697C90.1671,-136.345 86.2737,-127.52 82.426,-118.799"/>
<polygon fill="black" stroke="black" points="85.5196,-117.14 78.2809,-109.403 79.1152,-119.965 85.5196,-117.14"/>
</g>
<!-- 192.168.1.121&#45;&gt;192.168.1.255 -->
<g id="edge4" class="edge"><title>192.168.1.121&#45;&gt;192.168.1.255</title>
<path fill="none" stroke="black" d="M135.149,-144.697C139.815,-134.118 144.818,-122.78 149.638,-111.855"/>
<polygon fill="black" stroke="black" points="152.979,-112.952 153.813,-102.39 146.575,-110.126 152.979,-112.952"/>
</g>
<!-- 173.194.206.189&#45;&gt;192.168.1.103 -->
<g id="edge5" class="edge"><title>173.194.206.189&#45;&gt;192.168.1.103</title>
<path fill="none" stroke="black" d="M456.269,-99.2792C461.826,-103.026 467.599,-106.379 473.5,-109 572.692,-153.065 894.704,-178.568 1027.52,-187.667"/>
<polygon fill="black" stroke="black" points="1027.68,-191.186 1037.89,-188.37 1028.15,-184.202 1027.68,-191.186"/>
</g>
<!-- 172.217.11.37&#45;&gt;192.168.1.103 -->
<g id="edge8" class="edge"><title>172.217.11.37&#45;&gt;192.168.1.103</title>
<path fill="none" stroke="black" d="M569.263,-97.3357C575.057,-101.824 581.168,-105.883 587.5,-109 664.697,-147.009 913.603,-174.594 1027.63,-185.872"/>
<polygon fill="black" stroke="black" points="1027.61,-189.387 1037.9,-186.881 1028.29,-182.421 1027.61,-189.387"/>
</g>
<!-- 192.168.1.1&#45;&gt;192.168.1.103 -->
<g id="edge10" class="edge"><title>192.168.1.1&#45;&gt;192.168.1.103</title>
<path fill="none" stroke="black" d="M669.307,-95.5505C674.977,-100.69 681.063,-105.403 687.5,-109 797.497,-170.469 947.003,-186.46 1027.94,-190.419"/>
<polygon fill="black" stroke="black" points="1027.79,-193.916 1037.94,-190.863 1028.1,-186.923 1027.79,-193.916"/>
</g>
<!-- 172.217.10.46&#45;&gt;192.168.1.103 -->
<g id="edge12" class="edge"><title>172.217.10.46&#45;&gt;192.168.1.103</title>
<path fill="none" stroke="black" d="M783.186,-96.9433C788.736,-101.438 794.542,-105.604 800.5,-109 873.208,-150.444 968.045,-172.147 1027.96,-182.695"/>
<polygon fill="black" stroke="black" points="1027.55,-186.176 1037.99,-184.416 1028.73,-179.277 1027.55,-186.176"/>
</g>
<!-- 172.217.10.14&#45;&gt;192.168.1.103 -->
<g id="edge14" class="edge"><title>172.217.10.14&#45;&gt;192.168.1.103</title>
<path fill="none" stroke="black" d="M896.191,-94.9521C902.14,-99.992 908.305,-104.836 914.5,-109 950.228,-133.013 994.073,-153.274 1028.49,-167.708"/>
<polygon fill="black" stroke="black" points="1027.36,-171.026 1037.94,-171.623 1030.04,-164.56 1027.36,-171.026"/>
</g>
<!-- 172.217.12.174&#45;&gt;192.168.1.103 -->
<g id="edge17" class="edge"><title>172.217.12.174&#45;&gt;192.168.1.103</title>
<path fill="none" stroke="black" d="M1016.28,-105.64C1025.51,-115.82 1035.03,-126.575 1043.96,-136.901"/>
<polygon fill="black" stroke="black" points="1041.48,-139.391 1050.65,-144.697 1046.79,-134.83 1041.48,-139.391"/>
</g>
<!-- 192.30.253.113&#45;&gt;192.168.1.103 -->
<g id="edge19" class="edge"><title>192.30.253.113&#45;&gt;192.168.1.103</title>
<path fill="none" stroke="black" d="M1092.04,-105.64C1092.27,-115.022 1092.31,-124.892 1092.17,-134.464"/>
<polygon fill="black" stroke="black" points="1088.67,-134.623 1091.95,-144.697 1095.67,-134.775 1088.67,-134.623"/>
</g>
<!-- 173.194.207.189&#45;&gt;192.168.1.103 -->
<g id="edge20" class="edge"><title>173.194.207.189&#45;&gt;192.168.1.103</title>
<path fill="none" stroke="black" d="M1167.26,-109.077C1158.52,-118.87 1149.21,-129.081 1140.1,-138.847"/>
<polygon fill="black" stroke="black" points="1137.48,-136.525 1133.19,-146.214 1142.59,-141.314 1137.48,-136.525"/>
</g>
<!-- 172.217.10.42&#45;&gt;192.168.1.103 -->
<g id="edge23" class="edge"><title>172.217.10.42&#45;&gt;192.168.1.103</title>
<path fill="none" stroke="black" d="M1291.81,-102.25C1288.75,-104.64 1285.63,-106.911 1282.5,-109 1239.12,-137.922 1183.94,-160.727 1142.92,-174.964"/>
<polygon fill="black" stroke="black" points="1141.68,-171.688 1133.34,-178.221 1143.94,-178.315 1141.68,-171.688"/>
</g>
<!-- 10.18.208.1&#45;&gt;192.168.1.103 -->
<g id="edge25" class="edge"><title>10.18.208.1&#45;&gt;192.168.1.103</title>
<path fill="none" stroke="black" d="M1513.47,-95.5337C1508.02,-100.675 1501.93,-105.394 1495.5,-109 1382.28,-172.489 1226.51,-187.379 1143.26,-190.699"/>
<polygon fill="black" stroke="black" points="1143.1,-187.203 1133.23,-191.057 1143.35,-194.198 1143.1,-187.203"/>
</g>
<!-- 162.125.18.133&#45;&gt;192.168.1.103 -->
<g id="edge27" class="edge"><title>162.125.18.133&#45;&gt;192.168.1.103</title>
<path fill="none" stroke="black" d="M1601.85,-105.649C1599.76,-106.854 1597.64,-107.977 1595.5,-109 1444.36,-181.211 1241.55,-191.676 1143.38,-192.274"/>
<polygon fill="black" stroke="black" points="1143.34,-188.774 1133.35,-192.303 1143.36,-195.774 1143.34,-188.774"/>
</g>
<!-- 13.35.78.79&#45;&gt;192.168.1.103 -->
<g id="edge30" class="edge"><title>13.35.78.79&#45;&gt;192.168.1.103</title>
<path fill="none" stroke="black" d="M1733.98,-95.683C1728.42,-100.872 1722.17,-105.565 1715.5,-109 1616.67,-159.904 1279.7,-182.117 1143.34,-189.002"/>
<polygon fill="black" stroke="black" points="1142.92,-185.519 1133.1,-189.509 1143.27,-192.51 1142.92,-185.519"/>
</g>
<!-- 146.115.22.203 -->
<g id="node19" class="node"><title>146.115.22.203</title>
<polygon fill="none" stroke="black" points="958.5,-378 856.5,-378 856.5,-276 958.5,-276 958.5,-378"/>
<text text-anchor="middle" x="907.5" y="-323.3" font-family="Times New Roman,serif" font-size="14.00">146.115.22.203</text>
</g>
<!-- 146.115.22.203&#45;&gt;192.168.1.103 -->
<g id="edge31" class="edge"><title>146.115.22.203&#45;&gt;192.168.1.103</title>
<path fill="none" stroke="black" d="M958.655,-282.887C961.628,-280.533 964.591,-278.223 967.5,-276 987.313,-260.862 1009.6,-244.995 1029.43,-231.266"/>
<polygon fill="black" stroke="black" points="1031.51,-234.079 1037.76,-225.521 1027.54,-228.316 1031.51,-234.079"/>
</g>
<!-- 207.172.19.189 -->
<g id="node21" class="node"><title>207.172.19.189</title>
<polygon fill="none" stroke="black" points="1078.5,-378 976.5,-378 976.5,-276 1078.5,-276 1078.5,-378"/>
<text text-anchor="middle" x="1027.5" y="-323.3" font-family="Times New Roman,serif" font-size="14.00">207.172.19.189</text>
</g>
<!-- 207.172.19.189&#45;&gt;192.168.1.103 -->
<g id="edge33" class="edge"><title>207.172.19.189&#45;&gt;192.168.1.103</title>
<path fill="none" stroke="black" d="M1049.43,-275.907C1053.2,-267.296 1057.14,-258.298 1060.97,-249.543"/>
<polygon fill="black" stroke="black" points="1064.27,-250.732 1065.07,-240.168 1057.86,-247.925 1064.27,-250.732"/>
</g>
<!-- 207.172.19.67 -->
<g id="node22" class="node"><title>207.172.19.67</title>
<polygon fill="none" stroke="black" points="1192,-374.5 1097,-374.5 1097,-279.5 1192,-279.5 1192,-374.5"/>
<text text-anchor="middle" x="1144.5" y="-323.3" font-family="Times New Roman,serif" font-size="14.00">207.172.19.67</text>
</g>
<!-- 207.172.19.67&#45;&gt;192.168.1.103 -->
<g id="edge34" class="edge"><title>207.172.19.67&#45;&gt;192.168.1.103</title>
<path fill="none" stroke="black" d="M1123.7,-279.285C1119.42,-269.687 1114.88,-259.487 1110.48,-249.597"/>
<polygon fill="black" stroke="black" points="1113.58,-247.951 1106.31,-240.239 1107.18,-250.798 1113.58,-247.951"/>
</g>
<!-- 172.217.12.138&#45;&gt;192.168.1.103 -->
<g id="edge36" class="edge"><title>172.217.12.138&#45;&gt;192.168.1.103</title>
<path fill="none" stroke="black" d="M1950.31,-105.632C1948.08,-106.863 1945.8,-107.993 1943.5,-109 1799.74,-171.917 1312.12,-187.203 1143.41,-190.601"/>
<polygon fill="black" stroke="black" points="1143.17,-187.105 1133.24,-190.799 1143.31,-194.104 1143.17,-187.105"/>
</g>
<!-- 62.115.174.106 -->
<g id="node24" class="node"><title>62.115.174.106</title>
<polygon fill="none" stroke="black" points="1312.5,-378 1210.5,-378 1210.5,-276 1312.5,-276 1312.5,-378"/>
<text text-anchor="middle" x="1261.5" y="-323.3" font-family="Times New Roman,serif" font-size="14.00">62.115.174.106</text>
</g>
<!-- 62.115.174.106&#45;&gt;192.168.1.103 -->
<g id="edge37" class="edge"><title>62.115.174.106&#45;&gt;192.168.1.103</title>
<path fill="none" stroke="black" d="M1210.32,-282.915C1207.36,-280.554 1204.4,-278.234 1201.5,-276 1182.32,-261.219 1160.82,-245.665 1141.59,-232.096"/>
<polygon fill="black" stroke="black" points="1143.42,-229.099 1133.22,-226.211 1139.39,-234.825 1143.42,-229.099"/>
</g>
<!-- 172.217.7.3&#45;&gt;192.168.1.103 -->
<g id="edge39" class="edge"><title>172.217.7.3&#45;&gt;192.168.1.103</title>
<path fill="none" stroke="black" d="M2082.4,-95.7015C2076.75,-100.959 2070.36,-105.668 2063.5,-109 1900.19,-188.306 1327.42,-192.588 1143.06,-191.93"/>
<polygon fill="black" stroke="black" points="1143.04,-188.43 1133.02,-191.888 1143.01,-195.43 1143.04,-188.43"/>
</g>
</g>
</svg>
