<?xml version="1.0" encoding="UTF-8" standalone="no"?>
<!DOCTYPE svg PUBLIC "-//W3C//DTD SVG 1.1//EN"
 "http://www.w3.org/Graphics/SVG/1.1/DTD/svg11.dtd">
<!-- Generated by graphviz version 2.38.0 (20140413.2041)
 -->
<!-- Title: %3 Pages: 1 -->
<svg width="2047pt" height="248pt"
 viewBox="0.00 0.00 2047.00 248.00" xmlns="http://www.w3.org/2000/svg" xmlns:xlink="http://www.w3.org/1999/xlink">
<g id="graph0" class="graph" transform="scale(1 1) rotate(0) translate(4 244)">
<title>%3</title>
<polygon fill="white" stroke="none" points="-4,4 -4,-244 2043,-244 2043,4 -4,4"/>
<!-- 192.168.1.103 -->
<g id="node1" class="node"><title>192.168.1.103</title>
<polygon fill="none" stroke="black" points="1132,-240 1037,-240 1037,-145 1132,-145 1132,-240"/>
<text text-anchor="middle" x="1084.5" y="-188.8" font-family="Times New Roman,serif" font-size="14.00">192.168.1.103</text>
</g>
<!-- 239.255.255.250 -->
<g id="node2" class="node"><title>239.255.255.250</title>
<polygon fill="none" stroke="black" points="109,-109 0,-109 0,-0 109,-0 109,-109"/>
<text text-anchor="middle" x="54.5" y="-50.8" font-family="Times New Roman,serif" font-size="14.00">239.255.255.250</text>
</g>
<!-- 192.168.1.103&#45;&gt;239.255.255.250 -->
<g id="edge1" class="edge"><title>192.168.1.103&#45;&gt;239.255.255.250</title>
<path fill="none" stroke="black" d="M1036.72,-191.191C866.036,-189.509 287.653,-178.677 118.5,-109 118.404,-108.96 118.308,-108.921 118.211,-108.88"/>
<polygon fill="black" stroke="black" points="119.917,-105.817 109.389,-104.629 116.879,-112.123 119.917,-105.817"/>
</g>
<!-- 192.168.1.1 -->
<g id="node3" class="node"><title>192.168.1.1</title>
<polygon fill="none" stroke="black" points="209.5,-95.5 127.5,-95.5 127.5,-13.5 209.5,-13.5 209.5,-95.5"/>
<text text-anchor="middle" x="168.5" y="-50.8" font-family="Times New Roman,serif" font-size="14.00">192.168.1.1</text>
</g>
<!-- 192.168.1.103&#45;&gt;192.168.1.1 -->
<g id="edge3" class="edge"><title>192.168.1.103&#45;&gt;192.168.1.1</title>
<path fill="none" stroke="black" d="M1036.77,-191.373C875.942,-190.303 356.458,-181.278 209.5,-109 205.65,-107.106 201.946,-104.782 198.437,-102.174"/>
<polygon fill="black" stroke="black" points="200.543,-99.3723 190.627,-95.641 196.052,-104.742 200.543,-99.3723"/>
</g>
<!-- 173.194.207.189 -->
<g id="node4" class="node"><title>173.194.207.189</title>
<polygon fill="none" stroke="black" points="337,-109 228,-109 228,-0 337,-0 337,-109"/>
<text text-anchor="middle" x="282.5" y="-50.8" font-family="Times New Roman,serif" font-size="14.00">173.194.207.189</text>
</g>
<!-- 192.168.1.103&#45;&gt;173.194.207.189 -->
<g id="edge5" class="edge"><title>192.168.1.103&#45;&gt;173.194.207.189</title>
<path fill="none" stroke="black" d="M1036.84,-189.951C896.025,-184.652 483.801,-164.639 346.29,-112.937"/>
<polygon fill="black" stroke="black" points="347.456,-109.634 336.872,-109.16 344.85,-116.131 347.456,-109.634"/>
</g>
<!-- 104.16.60.37 -->
<g id="node5" class="node"><title>104.16.60.37</title>
<polygon fill="none" stroke="black" points="444,-99 355,-99 355,-10 444,-10 444,-99"/>
<text text-anchor="middle" x="399.5" y="-50.8" font-family="Times New Roman,serif" font-size="14.00">104.16.60.37</text>
</g>
<!-- 192.168.1.103&#45;&gt;104.16.60.37 -->
<g id="edge6" class="edge"><title>192.168.1.103&#45;&gt;104.16.60.37</title>
<path fill="none" stroke="black" d="M1036.67,-189.462C906.196,-183.05 547.611,-160.575 443.5,-109 441.142,-107.832 438.828,-106.517 436.568,-105.085"/>
<polygon fill="black" stroke="black" points="438.32,-102.034 428.154,-99.0492 434.239,-107.722 438.32,-102.034"/>
</g>
<!-- 192.168.1.255 -->
<g id="node6" class="node"><title>192.168.1.255</title>
<polygon fill="none" stroke="black" points="557,-102 462,-102 462,-7 557,-7 557,-102"/>
<text text-anchor="middle" x="509.5" y="-50.8" font-family="Times New Roman,serif" font-size="14.00">192.168.1.255</text>
</g>
<!-- 192.168.1.103&#45;&gt;192.168.1.255 -->
<g id="edge8" class="edge"><title>192.168.1.103&#45;&gt;192.168.1.255</title>
<path fill="none" stroke="black" d="M1036.93,-187.515C925.218,-177.586 649.288,-149.589 566.5,-109 565.495,-108.507 564.495,-107.99 563.501,-107.452"/>
<polygon fill="black" stroke="black" points="565.101,-104.327 554.748,-102.074 561.436,-110.291 565.101,-104.327"/>
</g>
<!-- 10.8.250.78 -->
<g id="node7" class="node"><title>10.8.250.78</title>
<polygon fill="none" stroke="black" points="657.5,-95.5 575.5,-95.5 575.5,-13.5 657.5,-13.5 657.5,-95.5"/>
<text text-anchor="middle" x="616.5" y="-50.8" font-family="Times New Roman,serif" font-size="14.00">10.8.250.78</text>
</g>
<!-- 192.168.1.103&#45;&gt;10.8.250.78 -->
<g id="edge9" class="edge"><title>192.168.1.103&#45;&gt;10.8.250.78</title>
<path fill="none" stroke="black" d="M1036.77,-191.406C955.617,-189.298 787.744,-176.347 666.5,-109 662.975,-107.042 659.556,-104.748 656.27,-102.231"/>
<polygon fill="black" stroke="black" points="658.294,-99.3584 648.395,-95.5802 653.777,-104.706 658.294,-99.3584"/>
</g>
<!-- 172.217.10.110 -->
<g id="node8" class="node"><title>172.217.10.110</title>
<polygon fill="none" stroke="black" points="777.5,-105.5 675.5,-105.5 675.5,-3.5 777.5,-3.5 777.5,-105.5"/>
<text text-anchor="middle" x="726.5" y="-50.8" font-family="Times New Roman,serif" font-size="14.00">172.217.10.110</text>
</g>
<!-- 192.168.1.103&#45;&gt;172.217.10.110 -->
<g id="edge10" class="edge"><title>192.168.1.103&#45;&gt;172.217.10.110</title>
<path fill="none" stroke="black" d="M1036.81,-186.082C976.034,-177.306 869.256,-156.443 780.714,-110.413"/>
<polygon fill="black" stroke="black" points="782.129,-107.201 771.659,-105.581 778.834,-113.377 782.129,-107.201"/>
</g>
<!-- 173.194.175.189 -->
<g id="node9" class="node"><title>173.194.175.189</title>
<polygon fill="none" stroke="black" points="905,-109 796,-109 796,-0 905,-0 905,-109"/>
<text text-anchor="middle" x="850.5" y="-50.8" font-family="Times New Roman,serif" font-size="14.00">173.194.175.189</text>
</g>
<!-- 192.168.1.103&#45;&gt;173.194.175.189 -->
<g id="edge13" class="edge"><title>192.168.1.103&#45;&gt;173.194.175.189</title>
<path fill="none" stroke="black" d="M1036.74,-175.122C1001.93,-161.084 954.224,-139.227 913.672,-114.16"/>
<polygon fill="black" stroke="black" points="915.458,-111.148 905.135,-108.763 911.718,-117.065 915.458,-111.148"/>
</g>
<!-- 162.125.18.133 -->
<g id="node10" class="node"><title>162.125.18.133</title>
<polygon fill="none" stroke="black" points="1025.5,-105.5 923.5,-105.5 923.5,-3.5 1025.5,-3.5 1025.5,-105.5"/>
<text text-anchor="middle" x="974.5" y="-50.8" font-family="Times New Roman,serif" font-size="14.00">162.125.18.133</text>
</g>
<!-- 192.168.1.103&#45;&gt;162.125.18.133 -->
<g id="edge15" class="edge"><title>192.168.1.103&#45;&gt;162.125.18.133</title>
<path fill="none" stroke="black" d="M1040.19,-144.697C1031.78,-134.655 1023.02,-123.928 1014.74,-113.521"/>
<polygon fill="black" stroke="black" points="1017.46,-111.316 1008.52,-105.64 1011.97,-115.656 1017.46,-111.316"/>
</g>
<!-- 52.43.79.30 -->
<g id="node11" class="node"><title>52.43.79.30</title>
<polygon fill="none" stroke="black" points="1125.5,-95.5 1043.5,-95.5 1043.5,-13.5 1125.5,-13.5 1125.5,-95.5"/>
<text text-anchor="middle" x="1084.5" y="-50.8" font-family="Times New Roman,serif" font-size="14.00">52.43.79.30</text>
</g>
<!-- 192.168.1.103&#45;&gt;52.43.79.30 -->
<g id="edge17" class="edge"><title>192.168.1.103&#45;&gt;52.43.79.30</title>
<path fill="none" stroke="black" d="M1078.05,-144.697C1077.68,-132.086 1077.65,-118.395 1077.96,-105.611"/>
<polygon fill="black" stroke="black" points="1081.46,-105.699 1078.28,-95.5918 1074.46,-105.475 1081.46,-105.699"/>
</g>
<!-- 172.217.12.129 -->
<g id="node12" class="node"><title>172.217.12.129</title>
<polygon fill="none" stroke="black" points="1245.5,-105.5 1143.5,-105.5 1143.5,-3.5 1245.5,-3.5 1245.5,-105.5"/>
<text text-anchor="middle" x="1194.5" y="-50.8" font-family="Times New Roman,serif" font-size="14.00">172.217.12.129</text>
</g>
<!-- 192.168.1.103&#45;&gt;172.217.12.129 -->
<g id="edge18" class="edge"><title>192.168.1.103&#45;&gt;172.217.12.129</title>
<path fill="none" stroke="black" d="M1115.91,-144.697C1123.73,-134.655 1132.33,-123.928 1140.89,-113.521"/>
<polygon fill="black" stroke="black" points="1143.73,-115.576 1147.41,-105.64 1138.34,-111.114 1143.73,-115.576"/>
</g>
<!-- 172.217.11.35 -->
<g id="node13" class="node"><title>172.217.11.35</title>
<polygon fill="none" stroke="black" points="1359,-102 1264,-102 1264,-7 1359,-7 1359,-102"/>
<text text-anchor="middle" x="1311.5" y="-50.8" font-family="Times New Roman,serif" font-size="14.00">172.217.11.35</text>
</g>
<!-- 192.168.1.103&#45;&gt;172.217.11.35 -->
<g id="edge20" class="edge"><title>192.168.1.103&#45;&gt;172.217.11.35</title>
<path fill="none" stroke="black" d="M1132.27,-169.63C1165.41,-154.877 1209.69,-133.643 1245.5,-109 1248.96,-106.62 1252.41,-104.033 1255.83,-101.325"/>
<polygon fill="black" stroke="black" points="1258.23,-103.885 1263.72,-94.8262 1253.78,-98.4815 1258.23,-103.885"/>
</g>
<!-- 172.217.11.42 -->
<g id="node14" class="node"><title>172.217.11.42</title>
<polygon fill="none" stroke="black" points="1472,-102 1377,-102 1377,-7 1472,-7 1472,-102"/>
<text text-anchor="middle" x="1424.5" y="-50.8" font-family="Times New Roman,serif" font-size="14.00">172.217.11.42</text>
</g>
<!-- 192.168.1.103&#45;&gt;172.217.11.42 -->
<g id="edge22" class="edge"><title>192.168.1.103&#45;&gt;172.217.11.42</title>
<path fill="none" stroke="black" d="M1132.23,-183.668C1189.33,-173.337 1286.09,-151.288 1359.5,-109 1362.66,-107.182 1365.77,-105.149 1368.83,-102.967"/>
<polygon fill="black" stroke="black" points="1370.96,-105.743 1376.78,-96.891 1366.71,-100.181 1370.96,-105.743"/>
</g>
<!-- 192.168.1.14 -->
<g id="node15" class="node"><title>192.168.1.14</title>
<polygon fill="none" stroke="black" points="1579,-99 1490,-99 1490,-10 1579,-10 1579,-99"/>
<text text-anchor="middle" x="1534.5" y="-50.8" font-family="Times New Roman,serif" font-size="14.00">192.168.1.14</text>
</g>
<!-- 192.168.1.103&#45;&gt;192.168.1.14 -->
<g id="edge24" class="edge"><title>192.168.1.103&#45;&gt;192.168.1.14</title>
<path fill="none" stroke="black" d="M1132.11,-190.063C1208.43,-185.87 1360.53,-169.806 1472.5,-109 1475.73,-107.243 1478.9,-105.226 1481.98,-103.026"/>
<polygon fill="black" stroke="black" points="1484.2,-105.736 1489.94,-96.8321 1479.9,-100.211 1484.2,-105.736"/>
</g>
<!-- 172.217.10.238 -->
<g id="node16" class="node"><title>172.217.10.238</title>
<polygon fill="none" stroke="black" points="1699.5,-105.5 1597.5,-105.5 1597.5,-3.5 1699.5,-3.5 1699.5,-105.5"/>
<text text-anchor="middle" x="1648.5" y="-50.8" font-family="Times New Roman,serif" font-size="14.00">172.217.10.238</text>
</g>
<!-- 192.168.1.103&#45;&gt;172.217.10.238 -->
<g id="edge26" class="edge"><title>192.168.1.103&#45;&gt;172.217.10.238</title>
<path fill="none" stroke="black" d="M1132.09,-192.343C1223.48,-191.853 1427.46,-181.55 1579.5,-109 1582.68,-107.481 1585.82,-105.742 1588.9,-103.839"/>
<polygon fill="black" stroke="black" points="1591.09,-106.586 1597.42,-98.0935 1587.17,-100.783 1591.09,-106.586"/>
</g>
<!-- 172.217.3.106 -->
<g id="node17" class="node"><title>172.217.3.106</title>
<polygon fill="none" stroke="black" points="1813,-102 1718,-102 1718,-7 1813,-7 1813,-102"/>
<text text-anchor="middle" x="1765.5" y="-50.8" font-family="Times New Roman,serif" font-size="14.00">172.217.3.106</text>
</g>
<!-- 192.168.1.103&#45;&gt;172.217.3.106 -->
<g id="edge28" class="edge"><title>192.168.1.103&#45;&gt;172.217.3.106</title>
<path fill="none" stroke="black" d="M1132.04,-188.721C1258.2,-181.075 1598.16,-157.03 1699.5,-109 1702.89,-107.394 1706.21,-105.512 1709.45,-103.432"/>
<polygon fill="black" stroke="black" points="1711.67,-106.144 1717.82,-97.5165 1707.64,-100.426 1711.67,-106.144"/>
</g>
<!-- 52.89.173.114 -->
<g id="node18" class="node"><title>52.89.173.114</title>
<polygon fill="none" stroke="black" points="1926,-102 1831,-102 1831,-7 1926,-7 1926,-102"/>
<text text-anchor="middle" x="1878.5" y="-50.8" font-family="Times New Roman,serif" font-size="14.00">52.89.173.114</text>
</g>
<!-- 192.168.1.103&#45;&gt;52.89.173.114 -->
<g id="edge31" class="edge"><title>192.168.1.103&#45;&gt;52.89.173.114</title>
<path fill="none" stroke="black" d="M1132.01,-189.997C1273.81,-185.057 1691,-166.217 1813.5,-109 1816.64,-107.533 1819.72,-105.819 1822.72,-103.922"/>
<polygon fill="black" stroke="black" points="1824.79,-106.748 1830.97,-98.148 1820.77,-101.012 1824.79,-106.748"/>
</g>
<!-- 52.173.26.181 -->
<g id="node19" class="node"><title>52.173.26.181</title>
<polygon fill="none" stroke="black" points="2039,-102 1944,-102 1944,-7 2039,-7 2039,-102"/>
<text text-anchor="middle" x="1991.5" y="-50.8" font-family="Times New Roman,serif" font-size="14.00">52.173.26.181</text>
</g>
<!-- 192.168.1.103&#45;&gt;52.173.26.181 -->
<g id="edge32" class="edge"><title>192.168.1.103&#45;&gt;52.173.26.181</title>
<path fill="none" stroke="black" d="M1132.21,-190.877C1288.51,-188.248 1782.7,-174.883 1926.5,-109 1929.49,-107.628 1932.43,-106.028 1935.3,-104.258"/>
<polygon fill="black" stroke="black" points="1937.43,-107.04 1943.68,-98.4875 1933.46,-101.273 1937.43,-107.04"/>
</g>
<!-- 192.168.1.1&#45;&gt;192.168.1.103 -->
<g id="edge2" class="edge"><title>192.168.1.1&#45;&gt;192.168.1.103</title>
<path fill="none" stroke="black" d="M208.395,-95.641C214.272,-100.906 220.655,-105.634 227.5,-109 369.287,-178.735 857.846,-189.589 1026.66,-191.228"/>
<polygon fill="black" stroke="black" points="1026.81,-194.729 1036.84,-191.319 1026.87,-187.729 1026.81,-194.729"/>
</g>
<!-- 173.194.207.189&#45;&gt;192.168.1.103 -->
<g id="edge4" class="edge"><title>173.194.207.189&#45;&gt;192.168.1.103</title>
<path fill="none" stroke="black" d="M337.214,-99.4052C342.781,-103.127 348.572,-106.44 354.5,-109 475.811,-161.381 875.661,-182.743 1026.41,-189.2"/>
<polygon fill="black" stroke="black" points="1026.68,-192.715 1036.82,-189.639 1026.98,-185.721 1026.68,-192.715"/>
</g>
<!-- 104.16.60.37&#45;&gt;192.168.1.103 -->
<g id="edge7" class="edge"><title>104.16.60.37&#45;&gt;192.168.1.103</title>
<path fill="none" stroke="black" d="M444.147,-97.5253C449.604,-101.983 455.408,-105.982 461.5,-109 560.793,-158.188 891.554,-180.908 1026.52,-188.467"/>
<polygon fill="black" stroke="black" points="1026.48,-191.97 1036.66,-189.027 1026.87,-184.981 1026.48,-191.97"/>
</g>
<!-- 172.217.10.110&#45;&gt;192.168.1.103 -->
<g id="edge11" class="edge"><title>172.217.10.110&#45;&gt;192.168.1.103</title>
<path fill="none" stroke="black" d="M777.559,-97.186C783.351,-101.583 789.373,-105.66 795.5,-109 870.018,-149.626 966.156,-171.539 1026.67,-182.357"/>
<polygon fill="black" stroke="black" points="1026.35,-185.854 1036.8,-184.124 1027.55,-178.958 1026.35,-185.854"/>
</g>
<!-- 173.194.175.189&#45;&gt;192.168.1.103 -->
<g id="edge12" class="edge"><title>173.194.175.189&#45;&gt;192.168.1.103</title>
<path fill="none" stroke="black" d="M905.251,-96.0363C911.273,-100.631 917.42,-105.068 923.5,-109 956.596,-130.403 996.069,-149.887 1027.71,-164.539"/>
<polygon fill="black" stroke="black" points="1026.3,-167.739 1036.84,-168.734 1029.22,-161.378 1026.3,-167.739"/>
</g>
<!-- 162.125.18.133&#45;&gt;192.168.1.103 -->
<g id="edge14" class="edge"><title>162.125.18.133&#45;&gt;192.168.1.103</title>
<path fill="none" stroke="black" d="M1021.59,-105.64C1029.99,-115.721 1038.63,-126.364 1046.73,-136.597"/>
<polygon fill="black" stroke="black" points="1044.16,-138.995 1053.09,-144.697 1049.67,-134.671 1044.16,-138.995"/>
</g>
<!-- 52.43.79.30&#45;&gt;192.168.1.103 -->
<g id="edge16" class="edge"><title>52.43.79.30&#45;&gt;192.168.1.103</title>
<path fill="none" stroke="black" d="M1090.72,-95.5918C1091.21,-107.748 1091.36,-121.343 1091.17,-134.389"/>
<polygon fill="black" stroke="black" points="1087.67,-134.623 1090.95,-144.697 1094.67,-134.775 1087.67,-134.623"/>
</g>
<!-- 172.217.12.129&#45;&gt;192.168.1.103 -->
<g id="edge19" class="edge"><title>172.217.12.129&#45;&gt;192.168.1.103</title>
<path fill="none" stroke="black" d="M1160.48,-105.64C1152.5,-115.82 1143.83,-126.575 1135.29,-136.901"/>
<polygon fill="black" stroke="black" points="1132.51,-134.771 1128.81,-144.697 1137.89,-139.249 1132.51,-134.771"/>
</g>
<!-- 172.217.11.35&#45;&gt;192.168.1.103 -->
<g id="edge21" class="edge"><title>172.217.11.35&#45;&gt;192.168.1.103</title>
<path fill="none" stroke="black" d="M1272.83,-102.093C1269.76,-104.522 1266.63,-106.846 1263.5,-109 1225.67,-135.036 1178.38,-157.267 1141.81,-172.069"/>
<polygon fill="black" stroke="black" points="1140.28,-168.911 1132.28,-175.857 1142.87,-175.416 1140.28,-168.911"/>
</g>
<!-- 172.217.11.42&#45;&gt;192.168.1.103 -->
<g id="edge23" class="edge"><title>172.217.11.42&#45;&gt;192.168.1.103</title>
<path fill="none" stroke="black" d="M1388.12,-102.015C1384.67,-104.558 1381.11,-106.919 1377.5,-109 1302.8,-152.032 1203.92,-174.106 1142.17,-184.202"/>
<polygon fill="black" stroke="black" points="1141.55,-180.758 1132.22,-185.779 1142.64,-187.672 1141.55,-180.758"/>
</g>
<!-- 192.168.1.14&#45;&gt;192.168.1.103 -->
<g id="edge25" class="edge"><title>192.168.1.14&#45;&gt;192.168.1.103</title>
<path fill="none" stroke="black" d="M1505.01,-99.1538C1500.44,-102.873 1495.56,-106.255 1490.5,-109 1377.93,-170.131 1224.81,-186.04 1142.43,-190.129"/>
<polygon fill="black" stroke="black" points="1142.08,-186.641 1132.25,-190.592 1142.4,-193.634 1142.08,-186.641"/>
</g>
<!-- 172.217.10.238&#45;&gt;192.168.1.103 -->
<g id="edge27" class="edge"><title>172.217.10.238&#45;&gt;192.168.1.103</title>
<path fill="none" stroke="black" d="M1603.85,-105.652C1601.76,-106.856 1599.64,-107.978 1597.5,-109 1445.25,-181.652 1240.91,-191.882 1142.31,-192.345"/>
<polygon fill="black" stroke="black" points="1142.25,-188.845 1132.25,-192.36 1142.26,-195.845 1142.25,-188.845"/>
</g>
<!-- 172.217.3.106&#45;&gt;192.168.1.103 -->
<g id="edge29" class="edge"><title>172.217.3.106&#45;&gt;192.168.1.103</title>
<path fill="none" stroke="black" d="M1729.29,-102.196C1725.5,-104.769 1721.55,-107.082 1717.5,-109 1616.57,-156.836 1278.94,-180.881 1142.4,-188.628"/>
<polygon fill="black" stroke="black" points="1141.94,-185.149 1132.15,-189.201 1142.33,-192.138 1141.94,-185.149"/>
</g>
<!-- 52.89.173.114&#45;&gt;192.168.1.103 -->
<g id="edge30" class="edge"><title>52.89.173.114&#45;&gt;192.168.1.103</title>
<path fill="none" stroke="black" d="M1843.52,-102.055C1839.67,-104.701 1835.64,-107.065 1831.5,-109 1709.61,-165.932 1295.96,-184.869 1142.4,-189.922"/>
<polygon fill="black" stroke="black" points="1142.12,-186.43 1132.24,-190.249 1142.34,-193.426 1142.12,-186.43"/>
</g>
<!-- 52.173.26.181&#45;&gt;192.168.1.103 -->
<g id="edge33" class="edge"><title>52.173.26.181&#45;&gt;192.168.1.103</title>
<path fill="none" stroke="black" d="M1956.56,-102.124C1952.7,-104.754 1948.66,-107.096 1944.5,-109 1801.42,-174.554 1311.44,-188.113 1142.34,-190.837"/>
<polygon fill="black" stroke="black" points="1142.1,-187.34 1132.15,-190.994 1142.2,-194.339 1142.1,-187.34"/>
</g>
</g>
</svg>
